<?xml version="1.0" encoding="UTF-8" standalone="no"?>
<svg width="73px" height="72px" viewBox="0 0 73 72" version="1.1" xmlns="http://www.w3.org/2000/svg" xmlns:xlink="http://www.w3.org/1999/xlink">
    <!-- Generator: Sketch 3.6.1 (26313) - http://www.bohemiancoding.com/sketch -->
    <title>Fill 387</title>
    <desc>Created with Sketch.</desc>
    <defs></defs>
    <g id="Page-1-Copy" stroke="none" stroke-width="1" fill="none" fill-rule="evenodd">
        <g id="切图" transform="translate(-760.000000, -1273.000000)" fill="#0B8EF0">
            <path d="M812.722558,1306.04693 C812.770174,1305.98397 812.813256,1305.91426 812.860872,1305.8513 C812.888081,1305.81757 812.917558,1305.79058 812.940233,1305.75685 L812.928895,1305.75685 C815.479767,1302.34332 817.010291,1298.136 817.010291,1293.55989 C817.010291,1282.20394 807.729651,1273 796.27907,1273 C784.830756,1273 775.550116,1282.20394 775.550116,1293.55989 C775.550116,1297.10384 776.463895,1300.43192 778.062442,1303.3395 C778.05564,1303.33725 778.04657,1303.33725 778.039767,1303.33725 C778.146337,1303.53288 778.284651,1303.70603 778.398023,1303.89717 C778.642907,1304.31094 778.89686,1304.7157 779.168953,1305.10923 C779.370756,1305.40381 779.572558,1305.69389 779.787965,1305.97722 C779.812907,1306.00871 779.833314,1306.04244 779.858256,1306.07617 C768.087965,1312.01949 760,1324.10627 760,1338.10444 C760,1341.88901 776.243953,1344.95849 796.27907,1344.95849 C816.316453,1344.95849 832.55814,1341.88901 832.55814,1338.10444 C832.55814,1324.10851 824.490581,1311.99475 812.722558,1306.04693 L812.722558,1306.04693 L812.722558,1306.04693 Z M796.27907,1277.49741 C805.210523,1277.49741 812.475407,1284.70225 812.475407,1293.55989 C812.475407,1297.10384 811.316744,1300.47465 809.124128,1303.31026 C809.035698,1303.4227 808.883779,1303.64757 808.876977,1303.63408 C805.90436,1307.28147 801.367209,1309.62237 796.281337,1309.62237 C791.043547,1309.62237 786.388488,1307.13306 783.427209,1303.29452 C781.243663,1300.46341 780.085,1297.0971 780.085,1293.55989 C780.085,1284.70225 787.349884,1277.49741 796.27907,1277.49741 L796.27907,1277.49741 L796.27907,1277.49741 Z M796.27907,1340.46108 C778.769884,1340.46108 767.802267,1338.17415 764.571163,1336.63379 C765.094942,1325.3543 771.641047,1315.27336 781.917093,1310.08336 L783.173256,1309.44697 C786.746744,1312.3523 791.299767,1314.11978 796.281337,1314.11978 C801.253837,1314.11978 805.797791,1312.36129 809.364477,1309.46047 L810.663721,1310.05412 C820.92843,1315.24188 827.465465,1325.33406 827.989244,1336.63379 C824.75814,1338.17415 813.790523,1340.46108 796.27907,1340.46108 L796.27907,1340.46108 L796.27907,1340.46108 Z" id="Fill-387"></path>
            <path d="M813.468032,1316.52632 C812.760554,1315.82366 811.612264,1315.82546 810.902973,1316.52632 L796.793337,1330.50394 L789.096347,1322.88076 C788.38887,1322.17811 787.24058,1322.17811 786.531288,1322.88076 C785.823811,1323.58162 785.821997,1324.71917 786.531288,1325.42182 L795.510807,1334.31733 C796.220099,1335.01819 797.368389,1335.01819 798.075866,1334.31733 L813.468032,1319.06738 C814.177323,1318.36652 814.177323,1317.22897 813.468032,1316.52632" id="Fill-388"></path>
        </g>
    </g>
</svg>