<?xml version="1.0" encoding="UTF-8" standalone="no"?>
<svg width="71px" height="85px" viewBox="0 0 71 85" version="1.1" xmlns="http://www.w3.org/2000/svg" xmlns:xlink="http://www.w3.org/1999/xlink">
    <!-- Generator: Sketch 3.6.1 (26313) - http://www.bohemiancoding.com/sketch -->
    <title>Pin</title>
    <desc>Created with Sketch.</desc>
    <defs></defs>
    <g id="Page-1-Copy" stroke="none" stroke-width="1" fill="none" fill-rule="evenodd">
        <g id="切图" transform="translate(-1034.000000, -1260.000000)" fill="#0B8EF0">
            <g id="Pin" transform="translate(1034.000000, 1260.000000)">
                <path d="M35.7798857,21.2494835 C31.9330286,21.2494835 28.3145143,22.7160124 25.5949714,25.3791322 C19.9789714,30.8786157 19.9789714,39.8228306 25.5949714,45.322314 C28.3145143,47.9854339 31.9330286,49.4519628 35.7798857,49.4519628 C39.6267429,49.4519628 43.2432,47.9854339 45.9648,45.322314 C48.6843429,42.6591942 50.1819429,39.1177686 50.1819429,35.3507231 C50.1819429,31.5836777 48.6843429,28.0442665 45.9648,25.3791322 C43.2432,22.7160124 39.6267429,21.2494835 35.7798857,21.2494835 L35.7798857,21.2494835 Z M43.0518857,42.4738636 C41.0441143,44.4399793 38.4109714,45.4230372 35.7798857,45.4230372 C33.1467429,45.4230372 30.5156571,44.4399793 28.5058286,42.4738636 C24.4902857,38.5396178 24.4902857,32.1618285 28.5058286,28.2295971 C30.5156571,26.2614669 33.1467429,25.2784091 35.7798857,25.2784091 C38.4109714,25.2784091 41.0441143,26.2614669 43.0518857,28.2295971 C47.0694857,32.1618285 47.0694857,38.5396178 43.0518857,42.4738636 L43.0518857,42.4738636 Z" id="Fill-149"></path>
                <path d="M60.5088,10.5708161 C53.6811429,3.72768595 44.7284571,0.305113636 35.7798857,0.305113636 C26.8292571,0.305113636 17.8806857,3.72567149 11.0509714,10.5708161 C-2.6064,24.2570764 -2.6064,46.4463843 11.0509714,60.1326446 L35.7798857,84.9125517 L60.5088,60.1326446 C74.1641143,46.4463843 74.1641143,24.2570764 60.5088,10.5708161 L60.5088,10.5708161 Z M57.6041143,57.2116736 L35.7798857,79.042407 L13.9556571,57.2116736 C8.12571429,51.3798037 4.91451429,43.6261364 4.91451429,35.3809401 C4.91451429,27.1337293 8.12571429,19.380062 13.9556571,13.5502066 C19.7856,7.71833678 27.5348571,4.50728306 35.7798857,4.50728306 C44.0228571,4.50728306 51.7741714,7.71833678 57.6041143,13.5502066 C69.6384,25.5866219 69.6384,45.1732438 57.6041143,57.2116736 L57.6041143,57.2116736 Z" id="Fill-150"></path>
            </g>
        </g>
    </g>
</svg>