<?xml version="1.0" encoding="UTF-8" standalone="no"?>
<svg width="72px" height="72px" viewBox="0 0 72 72" version="1.1" xmlns="http://www.w3.org/2000/svg" xmlns:xlink="http://www.w3.org/1999/xlink">
    <!-- Generator: Sketch 3.6.1 (26313) - http://www.bohemiancoding.com/sketch -->
    <title>box_bankers</title>
    <desc>Created with Sketch.</desc>
    <defs>
        <rect id="path-1" x="0" y="0" width="72" height="71.4049587"></rect>
    </defs>
    <g id="Page-1-Copy" stroke="none" stroke-width="1" fill="none" fill-rule="evenodd">
        <g id="切图" transform="translate(-492.000000, -1266.000000)">
            <g id="box_bankers" transform="translate(492.000000, 1266.000000)">
                <g id="Clipped">
                    <mask id="mask-2" fill="white">
                        <use xlink:href="#path-1"></use>
                    </mask>
                    <g id="SVGID_1_"></g>
                    <path d="M71.892,23.572562 L67.419,3.70413223 C67.01625,1.62892562 65.1915,0 63,0 L9.00225,0 C6.71625,0 4.82625,1.69140496 4.5405,3.88041322 L0.108,23.572562 C0.03825,23.8916529 0,24.2196694 0,24.5454545 L0,35.7024793 C0,37.353719 0.9045,38.7996694 2.25225,39.5695041 L2.25225,66.9421488 C2.25225,69.4078512 4.266,71.4049587 6.75225,71.4049587 L65.25,71.4049587 C67.734,71.4049587 69.75,69.4078512 69.75,66.9421488 L69.75,39.5672727 C71.0955,38.797438 72,37.353719 72,35.7024793 L72,24.5454545 C72,24.2196694 71.96175,23.8916529 71.892,23.572562 L71.892,23.572562 Z M9.00225,4.54090909 L9.00225,4.46280992 L63,4.46280992 L63,4.56099174 L67.49775,24.5454545 L4.5,24.5454545 L9.00225,4.54090909 L9.00225,4.54090909 Z M65.25,66.9421488 L6.75,66.9421488 L6.75,37.9338843 L22.5,37.9338843 L22.5,44.6280992 L49.50225,44.6280992 L49.50225,37.9338843 L65.25,37.9338843 L65.25,66.9421488 L65.25,66.9421488 Z M4.5,26.7768595 L67.5,26.7768595 L67.5,35.7024793 L4.5,35.7024793 L4.5,26.7768595 L4.5,26.7768595 Z" id="Shape" fill="#0B8EF0" mask="url(#mask-2)"></path>
                </g>
            </g>
        </g>
    </g>
</svg>