<?xml version="1.0" encoding="UTF-8" standalone="no"?>
<svg width="79px" height="90px" viewBox="0 0 79 90" version="1.1" xmlns="http://www.w3.org/2000/svg" xmlns:xlink="http://www.w3.org/1999/xlink">
    <!-- Generator: Sketch 3.6.1 (26313) - http://www.bohemiancoding.com/sketch -->
    <title>Group 2</title>
    <desc>Created with Sketch.</desc>
    <defs></defs>
    <g id="Page-1-Copy" stroke="none" stroke-width="1" fill="none" fill-rule="evenodd">
        <g id="切图" transform="translate(-219.000000, -1258.000000)">
            <g id="Group-2" transform="translate(221.000000, 1260.000000)">
                <g id="Group-61-Copy">
                    <path d="M36.8402925,0.687626739 C36.8402925,0.687626739 27.688591,18.0355669 0.235695522,18.0355669 C0.235695522,18.0355669 9.6546806,75.2147446 37.1097851,85.6230719 L37.1097851,85.5946756 C64.540591,75.1579521 73.9529493,18.0180923 73.9529493,18.0180923 C46.5000537,18.0180923 37.3483522,0.672336437 37.3483522,0.672336437" id="Fill-58"></path>
                    <path d="M36.8402925,0.687626739 C36.8402925,0.687626739 27.688591,18.0355669 0.235695522,18.0355669 C0.235695522,18.0355669 9.6546806,75.2147446 37.1097851,85.6230719 L37.1097851,85.5946756 C64.540591,75.1579521 73.9529493,18.0180923 73.9529493,18.0180923 C46.5000537,18.0180923 37.3483522,0.672336437 37.3483522,0.672336437" id="Stroke-60" stroke="#0B8EF0" stroke-width="4.374" stroke-linecap="round" stroke-linejoin="round"></path>
                </g>
                <g id="Group-66-Copy" transform="translate(20.985075, 37.133591)">
                    <path d="M14.882394,10.9546279 C16.0067522,12.0926632 16.0067522,13.9362368 14.882394,15.0742722 C13.7580358,16.2123076 11.9334388,16.2123076 10.8068716,15.0742722 L1.61761791,5.78213704 C0.491050746,4.64410168 0.491050746,2.80052809 1.61761791,1.66249273 C2.74197612,0.52445737 4.56657313,0.52445737 5.69093134,1.66249273 L14.882394,10.9546279 Z" id="Fill-62" fill="#0B8EF0"></path>
                    <path d="M14.882394,10.9546279 C16.0067522,12.0926632 16.0067522,13.9362368 14.882394,15.0742722 C13.7580358,16.2123076 11.9334388,16.2123076 10.8068716,15.0742722 L1.61761791,5.78213704 C0.491050746,4.64410168 0.491050746,2.80052809 1.61761791,1.66249273 C2.74197612,0.52445737 4.56657313,0.52445737 5.69093134,1.66249273 L14.882394,10.9546279 L14.882394,10.9546279 Z" id="Stroke-64"></path>
                </g>
                <g id="Group-71-Copy" transform="translate(30.820896, 31.572340)">
                    <path d="M5.33749254,21.2239816 C4.21313433,22.3620169 2.38853731,22.3620169 1.26197015,21.2239816 C0.13761194,20.0859462 0.13761194,18.2423726 1.26197015,17.1043373 L16.9411343,1.25484674 C18.0654925,0.116811382 19.8900896,0.116811382 21.0144478,1.25484674 C22.1410149,2.39069777 22.1410149,4.2364557 21.0144478,5.37449106 L5.33749254,21.2239816 Z" id="Fill-67" fill="#0B8EF0"></path>
                    <path d="M5.33749254,21.2239816 C4.21313433,22.3620169 2.38853731,22.3620169 1.26197015,21.2239816 C0.13761194,20.0859462 0.13761194,18.2423726 1.26197015,17.1043373 L16.9411343,1.25484674 C18.0654925,0.116811382 19.8900896,0.116811382 21.0144478,1.25484674 C22.1410149,2.39069777 22.1410149,4.2364557 21.0144478,5.37449106 L5.33749254,21.2239816 L5.33749254,21.2239816 Z" id="Stroke-69"></path>
                </g>
            </g>
        </g>
    </g>
</svg>